# xmcd CD database file
#
# Track frame offsets:
#	150
#	17265
#	41132
#	58750
#	76360
#	96340
#	117247
#	141080
#	161822
#	188035
#	207105
#	233227
#
# Disc length: 3480 seconds
#
# Revision: 0
# Processed by: cddbd v1.5.1PL0 Copyright (c) Steve Scherf et al.
# Submitted via: CDex 1.51
#
DISCID=9e0d960c
DTITLE=オムニバス - The Best of Japanese HIPHOP Vol. 2
DYEAR=1900
DGENRE=Hip-Hop
TTITLE0=Night Train - MC 仁義 feat. DOHZI-T, 凱
TTITLE1=Free Way - DJ BEAT feat. Soul Scream
TTITLE2=蛙鳴蝉噪 - DJ MA$A feat. MURO
TTITLE3=未確認飛行物体接近中 - Saga of K.G.
TTITLE4=G. Funk Love - E-DOC
TTITLE5=Last Tribe - OZ
TTITLE6=Krushnotized 〜'95 MIX - DJ Krush feat. Soul Scream
TTITLE7=爆烈都市 - Jupiter Project feat. MC 仁義, DOHZI-T, 凱, SKIPP
TTITLE8=Style Wars - CRAZY-A
TTITLE9=Shake it All Light - T-KURA
TTITLE10=Lovers Groove - GM YO-C feat. T2-G
TTITLE11=Where are you Going? - NU全ラ'95
EXTD=
EXTT0=
EXTT1=
EXTT2=
EXTT3=
EXTT4=
EXTT5=
EXTT6=
EXTT7=
EXTT8=
EXTT9=
EXTT10=
EXTT11=
PLAYORDER=
